<?xml version="1.0" standalone="no"?>
<!DOCTYPE svg PUBLIC "-//W3C//DTD SVG 20010904//EN"
 "http://www.w3.org/TR/2001/REC-SVG-20010904/DTD/svg10.dtd">
<svg version="1.0" xmlns="http://www.w3.org/2000/svg"
 width="256.000000pt" height="256.000000pt" viewBox="0 0 256.000000 256.000000"
 preserveAspectRatio="xMidYMid meet">
<metadata>
Created by potrace 1.11, written by Peter Selinger 2001-2013
</metadata>
<g transform="translate(0.000000,256.000000) scale(0.100000,-0.100000)"
fill="#000000" stroke="none">
<path d="M622 1890 c-283 -51 -447 -267 -428 -565 10 -167 51 -259 167 -380
91 -94 159 -136 275 -165 139 -36 389 -19 494 33 74 36 80 57 80 295 l0 203
-48 49 c-26 27 -60 54 -76 59 -15 6 -92 11 -172 11 -191 0 -214 -11 -214 -100
0 -34 7 -47 54 -95 52 -53 57 -55 106 -55 l51 0 -3 -67 -3 -67 -35 -9 c-55
-14 -209 -3 -252 18 -52 26 -79 92 -86 210 -11 218 64 331 234 350 77 9 156
-7 247 -51 81 -38 87 -40 126 -20 34 18 51 54 51 108 0 36 -6 47 -57 98 -96
95 -204 138 -363 145 -52 2 -119 0 -148 -5z"/>
<path d="M1723 1889 c-119 -20 -232 -84 -300 -170 -98 -123 -135 -314 -97
-497 22 -106 53 -166 133 -259 119 -138 228 -192 403 -201 120 -6 200 9 293
53 207 99 314 355 260 621 -30 142 -75 217 -194 320 -41 35 -100 76 -130 90
-96 46 -246 63 -368 43z m281 -283 c28 -12 42 -26 57 -62 30 -67 41 -164 29
-252 -25 -178 -108 -262 -261 -262 -77 0 -118 24 -149 85 -23 46 -25 61 -25
185 0 120 3 141 23 185 36 77 80 116 157 136 42 11 124 4 169 -15z"/>
</g>
</svg>
