<svg xmlns="http://www.w3.org/2000/svg" height="512" viewBox="0 0 512 512" width="512"><path d="m512 492c0 11-9 20-20 20h-236c-11 0-20-9-20-20s9-20 20-20h236c11 0 20 9 20 20zm-20-98.7h-157.3c-11 0-20 9-20 20 0 11 9 20 20 20h157.3c11 0 20-9 20-20 0-11-9-20-20-20zm0-78.7h-78.7c-11 0-20 9-20 20s9 20 20 20h78.7c11 0 20-9 20-20s-9-20-20-20zm14.1-162.5-354 354c-3.7 3.8-8.8 5.9-14.1 5.9h-118c-11 0-20-9-20-20v-118c0-5.3 2.1-10.4 5.9-14.1l354-354c7.8-7.8 20.5-7.8 28.3 0l118 118c7.8 7.8 7.8 20.5 0 28.3zm-42.4-14.1-89.7-89.7-334 334v89.7h89.7zm0 0"/></svg>